<!DOCTYPE svg PUBLIC "-//W3C//DTD SVG 1.1//EN" "http://www.w3.org/Graphics/SVG/1.1/DTD/svg11.dtd">

<!-- Uploaded to: SVG Repo, www.svgrepo.com, Transformed by: SVG Repo Mixer Tools -->
<svg fill="#cdd747" height="72px" width="72px" version="1.1" id="Layer_1" xmlns="http://www.w3.org/2000/svg" xmlns:xlink="http://www.w3.org/1999/xlink" viewBox="0 0 512 512" enable-background="new 0 0 512 512" xml:space="preserve" stroke="#cdd747">

<g id="SVGRepo_bgCarrier" stroke-width="0"/>

<g id="SVGRepo_tracerCarrier" stroke-linecap="round" stroke-linejoin="round"/>

<g id="SVGRepo_iconCarrier"> <path d="M448,362.7l-117.3-21.3C320,320,320,310.7,320,298.7c10.7-10.7,32-21.3,32-32c10.7-32,10.7-53.3,10.7-53.3 c5.5-8,21.3-21.3,21.3-42.7s-21.3-42.7-21.3-53.3C362.7,32,319.2,0,256,0c-60.5,0-106.7,32-106.7,117.3c0,10.7-21.3,32-21.3,53.3 s15.2,35.4,21.3,42.7c0,0,0,21.3,10.7,53.3c0,10.7,21.3,21.3,32,32c0,10.7,0,21.3-10.7,42.7L64,362.7C21.3,373.3,0,448,0,512h512 C512,448,490.7,373.3,448,362.7z"/> </g>

</svg>